<svg xmlns="http://www.w3.org/2000/svg" xmlns:xlink="http://www.w3.org/1999/xlink" viewBox="0 0 331.01 129.42"><defs><style>.cls-1{fill:none;}.cls-2{clip-path:url(#clip-path);}.cls-3{fill:#ca0811;}.cls-4{fill:#c80811;}.cls-5{fill:#c70811;}.cls-6{fill:#c50811;}.cls-7{fill:#c40712;}.cls-8{fill:#c20712;}.cls-9{fill:#c00712;}.cls-10{fill:#bf0712;}.cls-11{fill:#bd0712;}.cls-12{fill:#bc0712;}.cls-13{fill:#ba0712;}.cls-14{fill:#b90712;}.cls-15{fill:#b70613;}.cls-16{fill:#b60613;}.cls-17{fill:#b40613;}.cls-18{fill:#b30613;}.cls-19{fill:#b10613;}.cls-20{fill:#b00613;}.cls-21{fill:#af0613;}.cls-22{fill:#ad0613;}.cls-23{fill:#ac0514;}.cls-24{fill:#aa0514;}.cls-25{fill:#a90514;}.cls-26{fill:#a80514;}.cls-27{fill:#a60514;}.cls-28{fill:#a50514;}.cls-29{fill:#a30514;}.cls-30{fill:#a20514;}.cls-31{fill:#a10415;}.cls-32{fill:#a00415;}.cls-33{fill:#9e0415;}.cls-34{fill:#9d0415;}.cls-35{fill:#9c0415;}.cls-36{fill:#9b0415;}.cls-37{fill:#990415;}.cls-38{fill:#980415;}.cls-39{fill:#970415;}.cls-40{fill:#960316;}.cls-41{fill:#940316;}.cls-42{fill:#930316;}.cls-43{fill:#920316;}.cls-44{fill:#910316;}.cls-45{fill:#900316;}.cls-46{fill:#8f0316;}.cls-47{fill:#8e0316;}.cls-48{fill:#8d0316;}.cls-49{fill:#8b0316;}.cls-50{fill:#8a0316;}.cls-51{fill:#890217;}.cls-52{fill:#880217;}.cls-53{fill:#870217;}.cls-54{fill:#860217;}.cls-55{fill:#850217;}.cls-56{fill:#840217;}.cls-57{fill:#830217;}.cls-58{fill:#820217;}.cls-59{fill:#810217;}.cls-60{fill:#800217;}.cls-61{fill:#7f0217;}.cls-62{fill:#7e0118;}.cls-63{fill:#7d0118;}.cls-64{fill:#7c0118;}.cls-65{fill:#7b0118;}.cls-66{fill:#7a0118;}.cls-67{fill:#790118;}.cls-68{fill:#780118;}.cls-69{fill:#770118;}.cls-70{fill:#760118;}.cls-71{fill:#750118;}.cls-72{fill:#740118;}.cls-73{fill:#730118;}.cls-74{fill:#730019;}.cls-75{fill:#720019;}.cls-76{fill:#710019;}.cls-77{fill:#700019;}.cls-78{fill:#6f0019;}.cls-79{fill:#6e0019;}.cls-80{fill:#6d0019;}</style><clipPath id="clip-path"><path class="cls-1" d="M11.2,86.27a6.4,6.4,0,0,0-1.6-5.46,2.47,2.47,0,0,1-.47-2.74c2-4.08,2.27-8.15-.77-12.18a2.47,2.47,0,0,1,.09-3.07c2.35-2.92,2.28-6.66-.28-11a2.42,2.42,0,0,1,.51-3.05A12.08,12.08,0,0,0,13,36.18a2.49,2.49,0,0,1,1.33-2.87,6.54,6.54,0,0,0,3.74-3.94A2.5,2.5,0,0,1,19.32,28c2.87-1.37,4.43-3.47,4.62-6.3a2.43,2.43,0,0,1,1.93-2.26,7.72,7.72,0,0,0,5.91-4.34A2.41,2.41,0,0,1,34,13.61c3.59.11,6.32-1,8.18-3.29a2.5,2.5,0,0,1,3-.72,6.53,6.53,0,0,0,6.91-.48,2.3,2.3,0,0,1,2.9.25c1.42,1.38,4.13,2.88,8.73,1.42C71.31,8.4,79.76,0,88.47,6.3c9.07,6.57,7.06,21.74,8.35,26.85,1.13,4.48,8.4,3.15,13.1.07,5.47-3.59,11.94-6.34,13.67-4.16s-2.27,5.25-9.92,7.15C106.56,38,96.24,40.28,95.41,47.09c-.46,3.73,1.18,5.36,2.76,6.07a2.38,2.38,0,0,1,1.13,3.09c-1.77,4.54,1,8.18,7.16,11.13a2.37,2.37,0,0,1,1.25,3c-.9,2.38-.52,5.07.78,8a2.5,2.5,0,0,1-.52,2.93,5.55,5.55,0,0,0-1.67,5.92,2.33,2.33,0,0,1-1,2.64,5.3,5.3,0,0,0-2.93,5.8,2.32,2.32,0,0,1-1.8,2.53,8.18,8.18,0,0,0-6.08,4.79,2.47,2.47,0,0,1-2.56,1.52,6.77,6.77,0,0,0-6.59,2.69,2.39,2.39,0,0,1-1.79.77c-4.7.07-8.35,1.57-10.86,4.62a2.43,2.43,0,0,1-2.76.79,6,6,0,0,0-5.79.48,2.31,2.31,0,0,1-2.63-.15c-4.21-3.25-11.58-.29-12.91-1.05s-1.26-6.35-3.51-6.75-5,4.39-8.47,3.38-4.76-3.15-7.68-1.53-5.69,7-8,10.79c-2.6,4.34-8.16.11-3.58-3.73,2.49-2.09,11.35-8.29,8.82-16.68-2.09-7-7.89-9.16-12.63-9.19A2.35,2.35,0,0,1,11.2,86.27Z"/></clipPath></defs><title>Curitiba By Night</title><g id="Layer_2" data-name="Layer 2"><g id="_1" data-name="1"><path d="M196.42,100.68a23.52,23.52,0,0,1-10.83,5.85c-1,.17-2,.29-3.08.37l-3.34.24v7H177v-7a39.48,39.48,0,0,1-8.81-.73q-35-8.66-35-42.82a59,59,0,0,1,2.64-18.42c.58-1.55,1.28-3.44,2.08-5.68s1.74-4.9,2.83-8l15.1-11.34.76,1.58a28.5,28.5,0,0,0-3.78,4q-2.76,4.14-6,14.88-3.65,12.08-3.65,19.28a37.15,37.15,0,0,0,3.4,15.62,33.63,33.63,0,0,0,9.57,12.93q4.28-3.78,4.28-17.08a23.28,23.28,0,0,0-1.26-8.18q-2.15-5-5.92-5a7.55,7.55,0,0,0-3.9,1.22l-.25-.49,1.76-2.07c.75-.9,1.72-2,2.89-3.42a9.15,9.15,0,0,1,5.42-3.17,3.45,3.45,0,0,0,1.07-.37c.29-.16.6-.32.94-.48V30.53a24.25,24.25,0,0,0-1-6.23,31,31,0,0,0,4.66-1.21q1.63-.61,11.71-8.18a18.17,18.17,0,0,0,1.82-1.46c.63-.57,1.37-1.18,2.21-1.83q2.38,1.71,7.55,4.75a21.07,21.07,0,0,0,8.56,1.71,11.44,11.44,0,0,0,8.81-3.53l.88.73a13.35,13.35,0,0,1-1.13,1.22l-2,1.95q-10.83,8.3-15.36,8.29-6.93,0-12.84-5.36a14.44,14.44,0,0,1-1.14-1l-1.13-1.1-1.63,1.34V44.56q0,22.94-2,29.89a20.39,20.39,0,0,1-6,9.76q-1.51,1.46-5.41,4.88,5.91,5.37,19.38,8V30.28h2.14V97.14a28.34,28.34,0,0,0,5.92.49,32.42,32.42,0,0,0,16.61-4.4c1.85-1.13,4.49-3.74,7.94-7.8l.88.85Q206.37,90.67,196.42,100.68Z"/><path d="M197.65,32.81q3.76.88,3.77,3.93l0,22.45c.53,1.71,2,2.54,4.35,2.52l0-22.54c-.25-1.32-1.23-2.28-2.93-2.87q5.4-3.57,6.61-3.57a4.4,4.4,0,0,1,3.59,3.93l0,22.82q.08,2.15,3,3.16l-5.81,3.52q-3.76-.76-4.47-3.48l-6.36,3.44c-3.23-.29-5-1.73-5.35-4.29l0-22.66C194,37.71,193,36.88,191,36.66,192.1,35.53,194.31,34.24,197.65,32.81Z"/><path d="M232.11,33c.84,2.16,2.81,3.57,5.94,4.22q-5.4,5.79-10.88.73l-.54.56,0,20.51q.87,2.36,4,2.68v.73l-6.48,3.72a5.28,5.28,0,0,1-4.93-3.89l0-22.29c0-1.64-1.19-2.81-3.47-3.48q5.43-3.57,6.56-3.57,2.64.52,4.27,4.14Z"/><path d="M244.07,32.61q3.26,1.1,3.39,5v23l2.21,2.11a59.38,59.38,0,0,1-6.23,3.57h-.37c-.92,0-2.88-1.19-5.86-3.57a5.16,5.16,0,0,0,2.93-3.89V40.39A5,5,0,0,0,238,36.05Q243.06,32.61,244.07,32.61ZM244.36,21l5.27,4.33-5.81,5-4.94-4.7Z"/><path d="M264.68,7.85h.38v.36Q258.58,12,259,21.67l0,11.06,10.95,0,.05.36a27.51,27.51,0,0,1-8.2,7.75l-.34-.21A10.9,10.9,0,0,0,263.51,38h-4.76l0,20.06q1.54,3.31,4.89,2.84l3.26-1.06v.73q-7,5.07-9.66,5.55-4.56-.69-5.22-4.33l-.05-37Q252.4,13.27,264.68,7.85Z"/><path d="M275.51,32.61q3.27,1.1,3.39,5v23l2.22,2.11a60.44,60.44,0,0,1-6.23,3.57h-.38q-1.38,0-5.85-3.57a5.12,5.12,0,0,0,2.92-3.89V40.39a5,5,0,0,0-2.17-4.34C272.81,33.76,274.85,32.61,275.51,32.61Zm.3-11.59,5.27,4.33-5.82,5-4.93-4.7Z"/><path d="M291.11,34.8h.34L296.88,32h1.47q6.34,3.36,6.64,13.5l0,9.36a8.21,8.21,0,0,1-3.59,6.28,26.62,26.62,0,0,1-11.54,5,9.46,9.46,0,0,1-6.32-4.74l0-32.79Q284.75,14.17,298.56,8v.36q-6.94,4.26-7.45,16Zm.09,2.1,0,20.39c.39,2.19,1.88,3.52,4.47,4l1.3-1.38V47.76q-.25-8.34-5.14-11.55Z"/><path d="M320.72,32.65c1.39,2.83,3.92,4.38,7.57,4.62l0,20.1A3.51,3.51,0,0,0,331,60.53q-7.53,5.43-11.55,8.8L319,69l5.61-5.31a3.44,3.44,0,0,1-2.55-2.63q-4.89,5.22-8,5.15a6.29,6.29,0,0,1-4.64-4.79V41.52A78.17,78.17,0,0,1,320.72,32.65Zm-4.39,6.73V56.56c.47,2.4,1.7,3.73,3.68,4,.95-.27,1.45-1.28,1.5-3V41.89a5.51,5.51,0,0,1-4.39-3.28Z"/><path d="M220,86.91h.21L223.72,85h.95q4.11,2.25,4.3,9l0,6.24a5.51,5.51,0,0,1-2.33,4.19,16.79,16.79,0,0,1-7.46,3.33,6.15,6.15,0,0,1-4.08-3.16l0-21.88q.84-9.6,9.76-13.71v.24q-4.49,2.85-4.81,10.66Zm0,1.41,0,13.6A3.22,3.22,0,0,0,223,104.6l.84-.92V95.57c-.11-3.72-1.22-6.28-3.33-7.71Z"/><path d="M239.73,105.52l-4.11,2.3c-2.09-.2-3.25-1.16-3.46-2.87l0-15c-.07-1-.73-1.53-2-1.68a13.7,13.7,0,0,1,4.27-2.57c1.62.4,2.43,1.28,2.43,2.63l0,14.84c.34,1.14,1.31,1.7,2.92,1.68l0-15.12a2.58,2.58,0,0,0-1.89-1.92c2.29-1.53,3.69-2.29,4.22-2.29a2.89,2.89,0,0,1,2.32,2.62L244.38,115q-7.22,4.41-8.52,4.41a19.22,19.22,0,0,0-1.05-6.17,2.91,2.91,0,0,0-3.41-1.65l-1,.41,0-.22c2.35-2.07,4.13-3.11,5.36-3.11,2.13.24,3.43,2.58,3.92,7l.3-.13V105.52Z"/><path d="M266.47,71.77c2.61-1.6,4.44-2.4,5.46-2.4h.49a6,6,0,0,1,2.89,2.16h.49q2.73-1.92,3.57-1.92v.24a11.63,11.63,0,0,0-3,6.6v24.34q.11,8-8.76,10.06v-.25q4.28-2.3,4.11-9.27V77.13c-.13-3.25-1.7-4.87-4.73-4.87l-.14.13a7.86,7.86,0,0,1,.6,3.52v27.28a8.23,8.23,0,0,0,2.75,2.38L265.66,108c-1.8-.51-2.88-1.4-3.22-2.68v-31a4.71,4.71,0,0,0-2.86-2.08q3.78-2.66,4.73-2.65A6.46,6.46,0,0,1,266.47,71.77Z"/><path d="M282.48,85.45a3.26,3.26,0,0,1,2.19,3.33v15.33l1.43,1.41a37.52,37.52,0,0,1-4,2.38h-.24c-.6,0-1.86-.8-3.79-2.38a3.41,3.41,0,0,0,1.9-2.6V90.65a3.33,3.33,0,0,0-1.41-2.9Q281.83,85.46,282.48,85.45Zm.19-7.73,3.41,2.89L282.32,84l-3.19-3.14Z"/><path d="M294.94,85.05c1.45,1.93,3.64,2.88,6.57,2.87,0,.46-.37,1-1.24,1.54l0,25.93c-4.82,2.94-7.65,4.41-8.52,4.41a19.31,19.31,0,0,0-1.33-6.71,2.89,2.89,0,0,0-3.4-1.65l-1,.41,0-.22c2.35-2.07,4.13-3.11,5.36-3.11,2.12.23,3.57,2.74,4.32,7.52l.3-.14,0-10h-.24l-3.6,1.9a4.5,4.5,0,0,1-4-2.65V90.43q.33-1.68,3.46-3.52A32.51,32.51,0,0,1,294.94,85.05Zm-2,4.16,0,13.12a3.93,3.93,0,0,0,2.92,1.92l0-13.52A3.38,3.38,0,0,1,292.94,89.21Z"/><path d="M308.74,87.24l.24.24q3.38-2.13,4.7-2.13,3,2.3,3.11,11.14A27.76,27.76,0,0,1,305.73,118h-.46q4.61-7.47,5.66-12.39l-4,2.22a4.16,4.16,0,0,1-3.11-3.19l.08-21.82q.84-9.63,9.77-13.74v.25q-4.5,2.84-4.92,10.54Zm.05,1.19v14.38q.81,1.74,2.19,1.74c.52-1.81.71-5,.57-9.71a9.53,9.53,0,0,0-2.3-6.41Z"/><path d="M327.55,68.93h.25v.25q-4.2,2.53-3.95,9l0,7.39,7.08,0,0,.25a17.9,17.9,0,0,1-5.3,5.16l-.22-.13A7.63,7.63,0,0,0,326.8,89h-3.09l0,13.39a2.79,2.79,0,0,0,3.17,1.89l2.1-.7v.49q-4.51,3.38-6.24,3.7c-2-.31-3.09-1.27-3.38-2.89l0-24.66Q319.6,72.56,327.55,68.93Z"/><g id="_Group_" data-name="&lt;Group&gt;"><g class="cls-2"><rect class="cls-3" x="7.58" width="117.74" height="122.83"/><path class="cls-3" d="M111.75,63A61.25,61.25,0,0,1,3.06,106.62H6.58V28.72H3.9A61.24,61.24,0,0,1,111.75,63Z"/><path class="cls-4" d="M111.09,63A60.58,60.58,0,0,1,11.7,114.51a61.33,61.33,0,0,1-8.13-8.3h3V29.15H4.41A60.57,60.57,0,0,1,111.09,63Z"/><path class="cls-5" d="M110.44,63.08A59.93,59.93,0,0,1,4.08,105.79h2.5V29.57H4.91A59.93,59.93,0,0,1,110.44,63.08Z"/><path class="cls-6" d="M109.78,63.13A59.28,59.28,0,0,1,4.59,105.38h2V30H5.41A59.26,59.26,0,0,1,109.78,63.13Z"/><path class="cls-7" d="M109.13,63.19A58.61,58.61,0,0,1,13,113a59.66,59.66,0,0,1-7.86-8H6.58V30.42H5.92A58.61,58.61,0,0,1,109.13,63.19Z"/><path class="cls-8" d="M108.47,63.24A57.94,57.94,0,0,1,13.4,112.49a57.26,57.26,0,0,1-7.78-7.94h1V30.84H6.42a57.95,57.95,0,0,1,102.05,32.4Z"/><path class="cls-9" d="M107.81,63.3A57.3,57.3,0,0,1,0,94.89H6.58V40.31H.68a57.29,57.29,0,0,1,107.13,23Z"/><path class="cls-10" d="M107.16,63.36A56.65,56.65,0,0,1,.62,94.59h6v-54H1.25A56.64,56.64,0,0,1,107.16,63.36Z"/><path class="cls-11" d="M106.5,63.41A56,56,0,0,1,1.21,94.28H6.58V41H1.83A56,56,0,0,1,106.5,63.41Z"/><path class="cls-12" d="M105.85,63.47A55.33,55.33,0,0,1,1.79,94H6.58V41.27H2.4a55.79,55.79,0,0,1,6-8.73,55.32,55.32,0,0,1,97.42,30.93Z"/><path class="cls-13" d="M105.19,63.53A54.66,54.66,0,0,1,2.37,93.66H6.58V41.59H3A54.66,54.66,0,0,1,105.19,63.53Z"/><path class="cls-14" d="M104.53,63.58A54,54,0,0,1,3,93.36H6.58V41.91h-3a55,55,0,0,1,5.89-8.52,54,54,0,0,1,95.09,30.19Z"/><path class="cls-15" d="M103.88,63.64A53.35,53.35,0,0,1,3.54,93.05h3V51.68H0a53.35,53.35,0,0,1,103.88,12Z"/><path class="cls-16" d="M103.22,63.69A52.69,52.69,0,0,1,4.12,92.74H6.58V51.88H.63A52.68,52.68,0,0,1,103.22,63.69Z"/><path class="cls-17" d="M102.57,63.75A52,52,0,0,1,4.7,92.44H6.58V52.09H1.25A52,52,0,0,1,102.57,63.75Z"/><path class="cls-18" d="M101.91,63.81A51.38,51.38,0,0,1,5.28,92.13h1.3V52.29H1.88a51.37,51.37,0,0,1,100,11.52Z"/><path class="cls-19" d="M101.25,63.86A50.7,50.7,0,1,1,.22,72.5H6.58v-20H2.51a50.71,50.71,0,0,1,98.74,11.37Z"/><path class="cls-20" d="M100.6,63.92a50,50,0,1,1-54.13-45.6A50,50,0,0,1,100.6,63.92Z"/><path class="cls-21" d="M99.94,64A49.38,49.38,0,1,1,46.53,19,49.39,49.39,0,0,1,99.94,64Z"/><circle class="cls-22" cx="50.73" cy="68.18" r="48.73"/><circle class="cls-23" cx="50.73" cy="68.18" r="48.07"/><circle class="cls-24" cx="50.73" cy="68.18" r="47.41"/><circle class="cls-25" cx="50.73" cy="68.18" r="46.75"/><circle class="cls-26" cx="50.73" cy="68.18" r="46.09"/><circle class="cls-27" cx="50.73" cy="68.18" r="45.43"/><circle class="cls-28" cx="50.73" cy="68.18" r="44.78"/><circle class="cls-29" cx="50.73" cy="68.18" r="44.12"/><circle class="cls-30" cx="50.73" cy="68.18" r="43.46"/><circle class="cls-31" cx="50.73" cy="68.18" r="42.8"/><circle class="cls-32" cx="50.73" cy="68.18" r="42.14"/><circle class="cls-33" cx="50.73" cy="68.18" r="41.48"/><circle class="cls-34" cx="50.73" cy="68.18" r="40.83"/><circle class="cls-35" cx="50.73" cy="68.18" r="40.17"/><circle class="cls-36" cx="50.73" cy="68.18" r="39.51"/><circle class="cls-37" cx="50.73" cy="68.18" r="38.85"/><circle class="cls-38" cx="50.73" cy="68.18" r="38.19"/><circle class="cls-39" cx="50.73" cy="68.18" r="37.53"/><circle class="cls-40" cx="50.73" cy="68.18" r="36.87"/><circle class="cls-41" cx="50.73" cy="68.18" r="36.22"/><circle class="cls-42" cx="50.73" cy="68.18" r="35.56"/><circle class="cls-43" cx="50.73" cy="68.18" r="34.9"/><circle class="cls-44" cx="50.73" cy="68.18" r="34.24"/><circle class="cls-45" cx="50.73" cy="68.18" r="33.58"/><circle class="cls-46" cx="50.73" cy="68.18" r="32.92"/><circle class="cls-47" cx="50.73" cy="68.18" r="32.27"/><circle class="cls-48" cx="50.73" cy="68.18" r="31.61"/><circle class="cls-49" cx="50.73" cy="68.18" r="30.95"/><circle class="cls-50" cx="50.73" cy="68.18" r="30.29"/><circle class="cls-51" cx="50.73" cy="68.18" r="29.63"/><circle class="cls-52" cx="50.73" cy="68.18" r="28.97"/><circle class="cls-53" cx="50.73" cy="68.18" r="28.31"/><circle class="cls-54" cx="50.73" cy="68.18" r="27.66"/><circle class="cls-55" cx="50.73" cy="68.18" r="27"/><circle class="cls-56" cx="50.73" cy="68.18" r="26.34"/><circle class="cls-57" cx="50.73" cy="68.18" r="25.68"/><circle class="cls-58" cx="50.73" cy="68.18" r="25.02"/><circle class="cls-58" cx="50.73" cy="68.18" r="24.36"/><circle class="cls-59" cx="50.73" cy="68.18" r="23.71"/><circle class="cls-60" cx="50.73" cy="68.18" r="23.05"/><circle class="cls-61" cx="50.73" cy="68.18" r="22.39"/><circle class="cls-62" cx="50.73" cy="68.18" r="21.73"/><circle class="cls-63" cx="50.73" cy="68.18" r="21.07"/><circle class="cls-64" cx="50.73" cy="68.18" r="20.41"/><circle class="cls-64" cx="50.73" cy="68.18" r="19.75"/><circle class="cls-65" cx="50.73" cy="68.18" r="19.1"/><circle class="cls-66" cx="50.73" cy="68.18" r="18.44"/><circle class="cls-67" cx="50.73" cy="68.18" r="17.78"/><circle class="cls-68" cx="50.73" cy="68.18" r="17.12"/><circle class="cls-68" cx="50.73" cy="68.18" r="16.46"/><circle class="cls-69" cx="50.73" cy="68.18" r="15.8"/><circle class="cls-70" cx="50.73" cy="68.18" r="15.14"/><circle class="cls-70" cx="50.73" cy="68.18" r="14.49"/><circle class="cls-71" cx="50.73" cy="68.18" r="13.83"/><circle class="cls-72" cx="50.73" cy="68.18" r="13.17"/><circle class="cls-72" cx="50.73" cy="68.18" r="12.51"/><circle class="cls-73" cx="50.73" cy="68.18" r="11.85"/><circle class="cls-74" cx="50.73" cy="68.18" r="11.19"/><circle class="cls-75" cx="50.73" cy="68.18" r="10.54"/><circle class="cls-76" cx="50.73" cy="68.18" r="9.88"/><circle class="cls-76" cx="50.73" cy="68.18" r="9.22"/><circle class="cls-76" cx="50.73" cy="68.18" r="8.56"/><circle class="cls-77" cx="50.73" cy="68.18" r="7.9"/><circle class="cls-77" cx="50.73" cy="68.18" r="7.24"/><circle class="cls-78" cx="50.73" cy="68.18" r="6.58"/><circle class="cls-78" cx="50.73" cy="68.18" r="5.93"/><circle class="cls-79" cx="50.73" cy="68.18" r="5.27"/><circle class="cls-79" cx="50.73" cy="68.18" r="4.61"/><circle class="cls-79" cx="50.73" cy="68.18" r="3.95"/><circle class="cls-79" cx="50.73" cy="68.18" r="3.29"/><circle class="cls-80" cx="50.73" cy="68.18" r="2.63"/><circle class="cls-80" cx="50.73" cy="68.18" r="1.98"/><circle class="cls-80" cx="50.73" cy="68.18" r="1.32"/><circle class="cls-80" cx="50.73" cy="68.18" r="0.66"/></g></g><path class="cls-1" d="M53.66,51.37l-.7-.79,1,.1c2.28.21,4.07-.57,6-2.63a28.7,28.7,0,0,0,2-2.53c.3-.4.59-.8.9-1.19l.31-.4.57-.72.28.65a2.26,2.26,0,0,1,.16,1V45c0,.48,0,.95,0,1.43,0,1.2,0,2.43.13,3.63A6.9,6.9,0,0,0,66,53.94a9.44,9.44,0,0,0,.9.86l.57.49.62.57L67,56l-.2,0a8.34,8.34,0,0,0-6.16,5.75c-.32.88-.61,1.77-.9,2.64l-.21.63.1-.07c.76-.46,1.68-1,2.64-1.47,9-4.46,15.22-10.64,19.14-18.88a15.77,15.77,0,0,0,1.85-8.76,16.73,16.73,0,0,0-7.8-12.53,18.2,18.2,0,0,0-15.25-2.16c-5.58,1.9-9,5.43-10.47,10.78a38.24,38.24,0,0,0-.13,19.09,52.29,52.29,0,0,0,3.65,9.77c.35.78.71,1.59,1.06,2.39C55.88,59.35,57.18,55.33,53.66,51.37Z"/><path d="M54.43,88.08c0-.5-.1-1-.17-1.48A14.23,14.23,0,0,1,54.07,84,7.4,7.4,0,0,1,59,77a15.71,15.71,0,0,1,4.49-1.11,46.94,46.94,0,0,1,20.1,2.84A7.57,7.57,0,0,1,85.74,80a1.57,1.57,0,0,1,.34,2.38,8,8,0,0,1-1.73,1.82c-.88.64-1.82,1.24-2.73,1.81l-1.45.93a4.38,4.38,0,0,0-.59.49l-.32.28-.6.51.77.21.26.07a.83.83,0,0,0,.29.06,2.5,2.5,0,0,0,.49,0,19.6,19.6,0,0,0,7.67-2.68c3.17-2,4.63-4.54,4.44-7.75-.14-2.56-.32-5.15-.5-7.67-.08-1.24-.17-2.47-.25-3.71a.6.6,0,0,1,0-.12.51.51,0,0,1,0-.13l.1-.82-.72.4a2.45,2.45,0,0,0-.6.44l-.05,0-1.43,1.31c-1.11,1-2.26,2.07-3.44,3a4.92,4.92,0,0,1-4.55.86c-4.13-1.14-8.34-2.32-12.4-3.46l-2.48-.7,0,0c.89-.65,1.8-1.3,2.69-1.92,2-1.41,4.08-2.88,6-4.48A43.8,43.8,0,0,0,87.14,45.81a19.65,19.65,0,0,0,1.61-13.28C87,25.39,82.32,20.09,74.83,16.77A23.39,23.39,0,0,0,63,14.87c-7.5.69-13.08,4.05-16.59,10-2,3.37-3,7.35-3.26,12.54A57.93,57.93,0,0,0,47.3,60.9c0,.09.07.19.1.29a128.9,128.9,0,0,1-14.53-5.8,5.45,5.45,0,0,1-2.77-3,22.68,22.68,0,0,1-1.31-6.28c0-.19,0-.38-.05-.57l-.09-.86-.51.2-.1,0a.62.62,0,0,0-.27.15,64.1,64.1,0,0,0-8.43,9.92l-.5.75-.28.41-.2.59v.08a1.64,1.64,0,0,0,0,.22,1.79,1.79,0,0,1,0,.32A10.4,10.4,0,0,0,19,62.53a19.9,19.9,0,0,0,4.55,6.83,2.15,2.15,0,0,0,.45.33l.16.09.52.34.12-.6a2.2,2.2,0,0,0-.08-1.25c-.15-.4-.31-.8-.47-1.19a22.11,22.11,0,0,1-.8-2.19,16.56,16.56,0,0,1-.7-3.46,2,2,0,0,1,.42-1.58,2.16,2.16,0,0,1,1.65-.53,8.14,8.14,0,0,1,2.35.36,50.45,50.45,0,0,1,14.1,7,22.57,22.57,0,0,1,5.82,5.47,8.07,8.07,0,0,1-.28,10.16,12.46,12.46,0,0,1-1.33,1.41c-.31.3-.64.62-.94.95a3,3,0,0,0-.74,1.22c-.34,1.32-.67,2.66-1,3.95-.38,1.51-.77,3.08-1.18,4.61a143.57,143.57,0,0,1-4.91,14.77c3.44.83,6.11-3.8,8.32-3.41,1,.18,1.5,1.33,1.89,2.64a157.18,157.18,0,0,1,7.35-19A2.74,2.74,0,0,0,54.43,88.08Zm-4.8-37A38.24,38.24,0,0,1,49.76,32c1.46-5.35,4.89-8.88,10.47-10.78a18.2,18.2,0,0,1,15.25,2.16,16.73,16.73,0,0,1,7.8,12.53,15.77,15.77,0,0,1-1.85,8.76C77.51,52.92,71.25,59.1,62.29,63.56c-1,.48-1.88,1-2.64,1.47l-.1.07.21-.63c.29-.87.58-1.76.9-2.64a8.34,8.34,0,0,1,6.16-5.75l.2,0,1-.18-.62-.57-.57-.49a9.44,9.44,0,0,1-.9-.86A6.9,6.9,0,0,1,64.38,50c-.1-1.2-.12-2.43-.13-3.63,0-.48,0-1,0-1.43v-.15a2.26,2.26,0,0,0-.16-1l-.28-.65-.57.72-.31.4c-.31.39-.6.79-.9,1.19a28.7,28.7,0,0,1-2,2.53c-1.91,2.06-3.7,2.84-6,2.63l-1-.1.7.79c3.52,4,2.22,8,.68,11.89-.35-.8-.71-1.61-1.06-2.39A52.29,52.29,0,0,1,49.63,51.1Z"/></g></g></svg>
