<svg xmlns="http://www.w3.org/2000/svg" xmlns:xlink="http://www.w3.org/1999/xlink" viewBox="0 0 163.46 163.46"><defs><style>.cls-1{fill:none;}.cls-2{clip-path:url(#clip-path);}.cls-3{fill:#ca0811;}.cls-4{fill:#c80811;}.cls-5{fill:#c70811;}.cls-6{fill:#c50811;}.cls-7{fill:#c40712;}.cls-8{fill:#c20712;}.cls-9{fill:#c00712;}.cls-10{fill:#bf0712;}.cls-11{fill:#bd0712;}.cls-12{fill:#bc0712;}.cls-13{fill:#ba0712;}.cls-14{fill:#b90712;}.cls-15{fill:#b70613;}.cls-16{fill:#b60613;}.cls-17{fill:#b40613;}.cls-18{fill:#b30613;}.cls-19{fill:#b10613;}.cls-20{fill:#b00613;}.cls-21{fill:#af0613;}.cls-22{fill:#ad0613;}.cls-23{fill:#ac0514;}.cls-24{fill:#aa0514;}.cls-25{fill:#a90514;}.cls-26{fill:#a80514;}.cls-27{fill:#a60514;}.cls-28{fill:#a50514;}.cls-29{fill:#a30514;}.cls-30{fill:#a20514;}.cls-31{fill:#a10415;}.cls-32{fill:#a00415;}.cls-33{fill:#9e0415;}.cls-34{fill:#9d0415;}.cls-35{fill:#9c0415;}.cls-36{fill:#9b0415;}.cls-37{fill:#990415;}.cls-38{fill:#980415;}.cls-39{fill:#970415;}.cls-40{fill:#960316;}.cls-41{fill:#940316;}.cls-42{fill:#930316;}.cls-43{fill:#920316;}.cls-44{fill:#910316;}.cls-45{fill:#900316;}.cls-46{fill:#8f0316;}.cls-47{fill:#8e0316;}.cls-48{fill:#8d0316;}.cls-49{fill:#8b0316;}.cls-50{fill:#8a0316;}.cls-51{fill:#890217;}.cls-52{fill:#880217;}.cls-53{fill:#870217;}.cls-54{fill:#860217;}.cls-55{fill:#850217;}.cls-56{fill:#840217;}.cls-57{fill:#830217;}.cls-58{fill:#820217;}.cls-59{fill:#810217;}.cls-60{fill:#800217;}.cls-61{fill:#7f0217;}.cls-62{fill:#7e0118;}.cls-63{fill:#7d0118;}.cls-64{fill:#7c0118;}.cls-65{fill:#7b0118;}.cls-66{fill:#7a0118;}.cls-67{fill:#790118;}.cls-68{fill:#780118;}.cls-69{fill:#770118;}.cls-70{fill:#760118;}.cls-71{fill:#750118;}.cls-72{fill:#740118;}.cls-73{fill:#730118;}.cls-74{fill:#730019;}.cls-75{fill:#720019;}.cls-76{fill:#710019;}.cls-77{fill:#700019;}.cls-78{fill:#6f0019;}.cls-79{fill:#6e0019;}.cls-80{fill:#6d0019;}</style><clipPath id="clip-path"><path class="cls-1" d="M26.58,110.56a7.38,7.38,0,0,0-1.86-6.3,2.87,2.87,0,0,1-.53-3.17c2.28-4.71,2.61-9.4-.9-14.06a2.86,2.86,0,0,1,.11-3.54c2.71-3.37,2.63-7.69-.32-12.68a2.78,2.78,0,0,1,.59-3.52c4.39-3.73,6.32-8.48,5-14.56a2.86,2.86,0,0,1,1.53-3.3,7.62,7.62,0,0,0,4.32-4.55A2.84,2.84,0,0,1,36,43.27c3.31-1.58,5.11-4,5.33-7.27a2.81,2.81,0,0,1,2.24-2.61c3.23-.67,5.56-2.27,6.81-5a2.81,2.81,0,0,1,2.61-1.7q6.21.2,9.45-3.79a2.89,2.89,0,0,1,3.48-.84,7.52,7.52,0,0,0,8-.55,2.66,2.66,0,0,1,3.35.28c1.63,1.6,4.76,3.33,10.07,1.64C96,20.66,105.71,11,115.77,18.25c10.47,7.58,8.15,25.09,9.64,31,1.31,5.17,9.7,3.63,15.12.08,6.32-4.14,13.79-7.32,15.78-4.8s-2.62,6.06-11.45,8.25c-8.2,2-20.12,4.7-21.08,12.56-.53,4.31,1.37,6.19,3.18,7a2.75,2.75,0,0,1,1.31,3.57c-2.05,5.24,1.13,9.44,8.27,12.84A2.75,2.75,0,0,1,138,92.17c-1,2.75-.6,5.85.91,9.21a2.93,2.93,0,0,1-.6,3.39,6.39,6.39,0,0,0-1.94,6.83,2.66,2.66,0,0,1-1.2,3,6.13,6.13,0,0,0-3.38,6.7,2.67,2.67,0,0,1-2.07,2.92,9.48,9.48,0,0,0-7,5.53,2.83,2.83,0,0,1-3,1.76c-3-.52-5.53.64-7.61,3.09a2.72,2.72,0,0,1-2.07.9c-5.42.08-9.63,1.81-12.54,5.33a2.8,2.8,0,0,1-3.17.92,6.86,6.86,0,0,0-6.69.55,2.67,2.67,0,0,1-3-.18c-4.85-3.74-13.36-.33-14.9-1.21-1.7-1-1.45-7.32-4-7.79s-5.72,5.07-9.78,3.9-5.49-3.63-8.86-1.76-6.57,8-9.23,12.45c-3,5-9.42.13-4.14-4.3,2.88-2.42,13.1-9.57,10.19-19.26-2.42-8-9.12-10.57-14.59-10.61A2.71,2.71,0,0,1,26.58,110.56Z"/></clipPath></defs><title>Asset 6</title><g id="Layer_2" data-name="Layer 2"><g id="_1" data-name="1"><g id="_Group_" data-name="&lt;Group&gt;"><g class="cls-2"><rect class="cls-3" x="22.39" y="10.97" width="135.91" height="141.79"/><path class="cls-3" d="M142.65,83.66a70.69,70.69,0,0,1-116,60.08,71.91,71.91,0,0,1-9.5-9.69h4.07V44.13H18.15a70.69,70.69,0,0,1,124.5,39.53Z"/><path class="cls-4" d="M141.89,83.72A69.94,69.94,0,0,1,17.77,133.57h3.47V44.62H18.73a69.93,69.93,0,0,1,123.16,39.1Z"/><path class="cls-5" d="M141.13,83.79a69.17,69.17,0,0,1-122.77,49.3h2.88v-88H19.31A69.17,69.17,0,0,1,141.13,83.79Z"/><path class="cls-6" d="M140.37,83.85A68.41,68.41,0,0,1,28.13,142,69.49,69.49,0,0,1,19,132.62h2.29v-87H19.9A68.41,68.41,0,0,1,140.37,83.85Z"/><path class="cls-7" d="M139.62,83.92A67.67,67.67,0,0,1,19.54,132.14h1.7v-86h-.76A67.65,67.65,0,0,1,139.62,83.92Z"/><path class="cls-8" d="M138.86,84A66.89,66.89,0,0,1,29.11,140.83a67.69,67.69,0,0,1-9-9.17h1.11V46.58h-.18A66.89,66.89,0,0,1,138.86,84Z"/><path class="cls-9" d="M138.1,84A66.15,66.15,0,0,1,13.69,120.51h7.55v-63H14.43A66.13,66.13,0,0,1,138.1,84Z"/><path class="cls-10" d="M137.34,84.11a65.38,65.38,0,0,1-123,36.05h6.87V57.88H15.09a66.23,66.23,0,0,1,7.13-10.32A65.36,65.36,0,0,1,137.34,84.11Z"/><path class="cls-11" d="M136.59,84.17A64.62,64.62,0,0,1,15,119.8h6.2V58.25H15.76A64.61,64.61,0,0,1,136.59,84.17Z"/><path class="cls-12" d="M135.83,84.24A63.86,63.86,0,0,1,15.71,119.45h5.53V58.62H16.42a64.29,64.29,0,0,1,7-10.08,63.85,63.85,0,0,1,112.45,35.7Z"/><path class="cls-13" d="M135.07,84.3A63.11,63.11,0,0,1,16.38,119.1h4.86V59H17.08a63.1,63.1,0,0,1,118,25.31Z"/><path class="cls-14" d="M134.31,84.37A62.34,62.34,0,0,1,17.06,118.74h4.18V59.36H17.75a62.33,62.33,0,0,1,116.56,25Z"/><path class="cls-15" d="M133.56,84.43a61.59,61.59,0,0,1-115.83,34h3.51V70.63H13.65a61.58,61.58,0,0,1,119.91,13.8Z"/><path class="cls-16" d="M132.8,84.5A60.82,60.82,0,0,1,18.4,118h2.84V70.86H14.37A60.82,60.82,0,0,1,132.8,84.5Z"/><path class="cls-17" d="M132,84.56a60.07,60.07,0,0,1-113,33.12h2.17V71.1H15.09A60.06,60.06,0,0,1,132,84.56Z"/><path class="cls-18" d="M131.29,84.63A59.3,59.3,0,0,1,19.75,117.32h1.49v-46H15.82A59.3,59.3,0,0,1,131.29,84.63Z"/><path class="cls-19" d="M130.53,84.69a58.53,58.53,0,1,1-116.63,10h7.34V71.57h-4.7a58.54,58.54,0,0,1,114,13.12Z"/><path class="cls-20" d="M129.77,84.76A57.77,57.77,0,1,1,67.29,32.12,57.75,57.75,0,0,1,129.77,84.76Z"/><path class="cls-21" d="M129,84.82A57,57,0,1,1,67.36,32.88,57,57,0,0,1,129,84.82Z"/><circle class="cls-22" cx="72.21" cy="89.68" r="56.25"/><circle class="cls-23" cx="72.21" cy="89.68" r="55.49"/><circle class="cls-24" cx="72.21" cy="89.68" r="54.73"/><circle class="cls-25" cx="72.21" cy="89.68" r="53.97"/><circle class="cls-26" cx="72.21" cy="89.68" r="53.21"/><circle class="cls-27" cx="72.21" cy="89.68" r="52.45"/><circle class="cls-28" cx="72.21" cy="89.68" r="51.69"/><circle class="cls-29" cx="72.21" cy="89.68" r="50.93"/><circle class="cls-30" cx="72.21" cy="89.68" r="50.17"/><circle class="cls-31" cx="72.21" cy="89.68" r="49.41"/><circle class="cls-32" cx="72.21" cy="89.68" r="48.65"/><circle class="cls-33" cx="72.21" cy="89.68" r="47.89"/><circle class="cls-34" cx="72.21" cy="89.68" r="47.13"/><circle class="cls-35" cx="72.21" cy="89.68" r="46.37"/><circle class="cls-36" cx="72.21" cy="89.68" r="45.61"/><circle class="cls-37" cx="72.21" cy="89.68" r="44.85"/><circle class="cls-38" cx="72.21" cy="89.68" r="44.09"/><circle class="cls-39" cx="72.21" cy="89.68" r="43.33"/><circle class="cls-40" cx="72.21" cy="89.68" r="42.57"/><circle class="cls-41" cx="72.21" cy="89.68" r="41.81"/><circle class="cls-42" cx="72.21" cy="89.68" r="41.05"/><circle class="cls-43" cx="72.21" cy="89.68" r="40.29"/><circle class="cls-44" cx="72.21" cy="89.68" r="39.53"/><circle class="cls-45" cx="72.21" cy="89.68" r="38.77"/><circle class="cls-46" cx="72.21" cy="89.68" r="38.01"/><circle class="cls-47" cx="72.21" cy="89.68" r="37.25"/><circle class="cls-48" cx="72.21" cy="89.68" r="36.49"/><circle class="cls-49" cx="72.21" cy="89.68" r="35.73"/><circle class="cls-50" cx="72.21" cy="89.68" r="34.96"/><circle class="cls-51" cx="72.21" cy="89.68" r="34.2"/><circle class="cls-52" cx="72.21" cy="89.68" r="33.44"/><circle class="cls-53" cx="72.21" cy="89.68" r="32.68"/><circle class="cls-54" cx="72.21" cy="89.68" r="31.92"/><circle class="cls-55" cx="72.21" cy="89.68" r="31.16"/><circle class="cls-56" cx="72.21" cy="89.68" r="30.4"/><circle class="cls-57" cx="72.21" cy="89.68" r="29.64"/><circle class="cls-58" cx="72.21" cy="89.68" r="28.88"/><circle class="cls-58" cx="72.21" cy="89.68" r="28.12"/><circle class="cls-59" cx="72.21" cy="89.68" r="27.36"/><circle class="cls-60" cx="72.21" cy="89.68" r="26.6"/><circle class="cls-61" cx="72.21" cy="89.68" r="25.84"/><circle class="cls-62" cx="72.21" cy="89.68" r="25.08"/><circle class="cls-63" cx="72.21" cy="89.68" r="24.32"/><circle class="cls-64" cx="72.21" cy="89.68" r="23.56"/><circle class="cls-64" cx="72.21" cy="89.68" r="22.8"/><circle class="cls-65" cx="72.21" cy="89.68" r="22.04"/><circle class="cls-66" cx="72.21" cy="89.68" r="21.28"/><circle class="cls-67" cx="72.21" cy="89.68" r="20.52"/><circle class="cls-68" cx="72.21" cy="89.68" r="19.76"/><circle class="cls-68" cx="72.21" cy="89.68" r="19"/><circle class="cls-69" cx="72.21" cy="89.68" r="18.24"/><circle class="cls-70" cx="72.21" cy="89.68" r="17.48"/><circle class="cls-70" cx="72.21" cy="89.68" r="16.72"/><circle class="cls-71" cx="72.21" cy="89.68" r="15.96"/><circle class="cls-72" cx="72.21" cy="89.68" r="15.2"/><circle class="cls-72" cx="72.21" cy="89.68" r="14.44"/><circle class="cls-73" cx="72.21" cy="89.68" r="13.68"/><circle class="cls-74" cx="72.21" cy="89.68" r="12.92"/><circle class="cls-75" cx="72.21" cy="89.68" r="12.16"/><circle class="cls-76" cx="72.21" cy="89.68" r="11.4"/><circle class="cls-76" cx="72.21" cy="89.68" r="10.64"/><circle class="cls-76" cx="72.21" cy="89.68" r="9.88"/><circle class="cls-77" cx="72.21" cy="89.68" r="9.12"/><circle class="cls-77" cx="72.21" cy="89.68" r="8.36"/><circle class="cls-78" cx="72.21" cy="89.68" r="7.6"/><circle class="cls-78" cx="72.21" cy="89.68" r="6.84"/><circle class="cls-79" cx="72.21" cy="89.68" r="6.08"/><circle class="cls-79" cx="72.21" cy="89.68" r="5.32"/><circle class="cls-79" cx="72.21" cy="89.68" r="4.56"/><circle class="cls-79" cx="72.21" cy="89.68" r="3.8"/><circle class="cls-80" cx="72.21" cy="89.68" r="3.04"/><circle class="cls-80" cx="72.21" cy="89.68" r="2.28"/><circle class="cls-80" cx="72.21" cy="89.68" r="1.52"/><circle class="cls-80" cx="72.21" cy="89.68" r="0.76"/></g></g><path class="cls-1" d="M75.59,70.27l-.81-.92,1.21.12c2.64.25,4.7-.66,6.91-3a36.35,36.35,0,0,0,2.33-2.92c.34-.46.68-.92,1-1.38l.35-.45.66-.84.32.75a2.56,2.56,0,0,1,.19,1.1.54.54,0,0,0,0,.18c0,.55,0,1.09,0,1.64,0,1.38,0,2.81.16,4.19a7.9,7.9,0,0,0,1.8,4.53,9.24,9.24,0,0,0,1,1l.65.57.71.65L91,75.67l-.23,0a9.65,9.65,0,0,0-7.12,6.64c-.36,1-.7,2-1,3l-.24.73L82.5,86c.89-.53,1.94-1.14,3-1.7,10.34-5.15,17.57-12.28,22.1-21.79,1.82-3.83,2.48-6.95,2.14-10.11a19.33,19.33,0,0,0-9-14.46c-5.38-3.42-12.12-4.38-17.6-2.5-6.44,2.2-10.39,6.27-12.08,12.44a44.16,44.16,0,0,0-.15,22,60.24,60.24,0,0,0,4.21,11.27c.41.9.82,1.83,1.23,2.76C78.15,79.49,79.65,74.84,75.59,70.27Z"/><path d="M76.48,112.64c0-.57-.12-1.14-.2-1.7a17.74,17.74,0,0,1-.22-3,8.55,8.55,0,0,1,5.68-8.17,18.11,18.11,0,0,1,5.18-1.28,54.08,54.08,0,0,1,23.21,3.28,8.78,8.78,0,0,1,2.49,1.49,1.81,1.81,0,0,1,.4,2.75,9.18,9.18,0,0,1-2,2.1c-1,.74-2.1,1.43-3.15,2.09l-1.67,1.07a6.7,6.7,0,0,0-.68.56l-.37.33-.69.59.88.24.3.08a1.21,1.21,0,0,0,.35.07,3.17,3.17,0,0,0,.55,0,22.85,22.85,0,0,0,8.87-3.09c3.65-2.33,5.33-5.25,5.12-8.95-.17-3-.38-6-.58-8.85-.1-1.43-.2-2.86-.29-4.29a.93.93,0,0,1,0-.14s0-.1,0-.15l.12-.94-.83.46a2.74,2.74,0,0,0-.69.5l-.06.05-1.66,1.51c-1.27,1.17-2.59,2.39-4,3.48a5.67,5.67,0,0,1-5.25,1c-4.78-1.32-9.63-2.68-14.32-4l-2.87-.8,0,0c1-.75,2.09-1.49,3.11-2.21,2.31-1.63,4.71-3.32,6.91-5.17a50.4,50.4,0,0,0,14-17.68c2.46-5.36,3.07-10.38,1.86-15.33-2-8.23-7.43-14.35-16.08-18.19a27,27,0,0,0-13.67-2.19c-8.65.8-15.09,4.67-19.14,11.51-2.3,3.88-3.49,8.48-3.77,14.47-.39,8.69,1.18,17.57,4.8,27.15l.13.33a149,149,0,0,1-16.78-6.68,6.28,6.28,0,0,1-3.19-3.53,25.93,25.93,0,0,1-1.52-7.24l-.06-.67-.1-1-.59.24-.11,0a.63.63,0,0,0-.32.17A73.35,73.35,0,0,0,36,74.39c-.19.3-.39.58-.59.87l-.32.47-.23.68v.09a2.28,2.28,0,0,0,0,.26,1.64,1.64,0,0,1,0,.37,11.88,11.88,0,0,0,.7,6A22.86,22.86,0,0,0,40.84,91a2.27,2.27,0,0,0,.53.38l.18.11.59.38.15-.69a2.5,2.5,0,0,0-.1-1.44q-.25-.69-.54-1.38a25.31,25.31,0,0,1-.92-2.52,18.77,18.77,0,0,1-.81-4,2.3,2.3,0,0,1,.49-1.82,2.46,2.46,0,0,1,1.9-.61,9.49,9.49,0,0,1,2.71.41A58.66,58.66,0,0,1,61.3,88,25.79,25.79,0,0,1,68,94.31,9.32,9.32,0,0,1,67.7,106a16.6,16.6,0,0,1-1.54,1.62c-.36.35-.74.71-1.09,1.09a3.55,3.55,0,0,0-.85,1.42c-.4,1.52-.78,3.06-1.15,4.56-.43,1.74-.88,3.55-1.35,5.31a165.38,165.38,0,0,1-5.68,17c4,1,7.05-4.38,9.61-3.93,1.14.21,1.73,1.53,2.18,3a181.93,181.93,0,0,1,8.48-22A3.27,3.27,0,0,0,76.48,112.64ZM70.94,70a44.16,44.16,0,0,1,.15-22c1.69-6.17,5.64-10.24,12.08-12.44,5.48-1.88,12.22-.92,17.6,2.5a19.33,19.33,0,0,1,9,14.46c.34,3.16-.32,6.28-2.14,10.11-4.53,9.51-11.76,16.64-22.1,21.79-1.11.56-2.16,1.17-3,1.7l-.11.08.24-.73c.33-1,.67-2,1-3a9.65,9.65,0,0,1,7.12-6.64l.23,0,1.17-.22-.71-.65-.65-.57a9.24,9.24,0,0,1-1-1A7.9,7.9,0,0,1,88,68.71c-.13-1.38-.14-2.81-.16-4.19,0-.55,0-1.09,0-1.64a.54.54,0,0,1,0-.18,2.56,2.56,0,0,0-.19-1.1l-.32-.75-.66.84-.35.45c-.36.46-.7.92-1,1.38a36.35,36.35,0,0,1-2.33,2.92c-2.21,2.37-4.27,3.28-6.91,3l-1.21-.12.81.92c4.06,4.57,2.56,9.22.79,13.73-.41-.93-.82-1.86-1.23-2.76A60.24,60.24,0,0,1,70.94,70Z"/><rect class="cls-1" width="163.46" height="163.46" rx="62.99" ry="62.99"/></g></g></svg>